<?xml version="1.0" encoding="UTF-8"?>
<svg id="Ebene_2" data-name="Ebene 2" xmlns="http://www.w3.org/2000/svg" viewBox="0 0 2263.5 371.75">
  <defs>
    <style>
      .cls-1 {
        fill-rule: evenodd;
      }
    </style>
  </defs>
  <g id="Ebene_1-2" data-name="Ebene 1">
    <path class="cls-1" d="M1475.52,32.39c4.36,0,12.04,1.06,12.04-5.86,0-5.46-4.4-6.16-9.09-6.16h-9.49v12.02h6.55ZM1491.54,51.28h-5.1l-9.81-15.67h-7.69v15.67h-4.34V17.42h14.9c3.28,0,5.81.42,8.38,1.82,2.18,1.13,3.63,4.06,3.63,7.29,0,6.93-4.75,9.09-10.19,9.09l10.22,15.67h0ZM1502.44,34.2c-.08-14.44-11.77-26.13-26.21-26.21-14.57,0-26.89,11.67-26.89,26.21s12.32,26.87,26.89,26.87,26.21-11.97,26.21-26.87h0ZM1446.08,34.2c-.02-16.47,13.33-29.84,29.8-29.86.12,0,.24,0,.37,0,16.77,0,30.21,13.49,30.21,29.86s-13.44,30.53-30.21,30.53c-17.09-.01-30.17-13.81-30.17-30.53h0ZM2232.93,32.39c4.4,0,12.02,1.06,12.02-5.86,0-5.46-4.73-6.16-8.74-6.16h-9.81v12.02h6.52,0ZM2248.58,51.28h-4.75l-10.14-15.67h-7.29v15.67h-3.98V17.42h14.55c2.88,0,5.45.42,8.33,1.82,2.58,1.13,3.64,4.06,3.64,7.29,0,6.93-4.7,9.09-10.56,9.09l10.19,15.67h0ZM2259.85,34.2c0-14.55-11.62-26.21-26.52-26.21s-26.22,11.67-26.22,26.21,11.67,26.87,26.22,26.87,26.52-11.97,26.52-26.87h0ZM2203.47,34.2c0-16.37,12.71-29.86,29.86-29.86s30.17,13.49,30.17,29.86-13.45,30.53-30.17,30.53c-17.13-.01-29.86-13.81-29.86-30.53h0ZM434.38,311.75c-43.84.17-79.52-35.24-79.69-79.09,0-.19,0-.39,0-.58-.02-43.97,35.6-79.63,79.57-79.65h.12c43.95-.02,79.6,35.59,79.62,79.54,0,.03,0,.07,0,.1.16,43.84-35.24,79.51-79.08,79.67-.18,0-.36,0-.55,0ZM135.31,311.75c-44.01,0-79.28-35.26-79.28-79.67s35.28-79.65,79.28-79.65,79.69,35.62,79.69,79.65c.14,43.87-35.31,79.54-79.18,79.67-.17,0-.34,0-.51,0h0ZM1137.92,311.75c-44.01,0-79.28-35.26-79.28-79.67s35.28-79.65,79.28-79.65,79.32,35.62,79.32,79.65c.19,43.82-35.18,79.49-79,79.67-.11,0-.22,0-.32,0ZM835.62,311.75c-43.74.27-79.41-34.96-79.69-78.7,0-.33,0-.65,0-.98-.13-43.86,35.32-79.52,79.18-79.65.17,0,.34,0,.51,0,43.98-.02,79.65,35.61,79.67,79.6v.05c.14,43.86-35.29,79.53-79.15,79.67-.17,0-.35,0-.52,0ZM514.41,341.58c-23.15,17.14-51.22,26.33-80.02,26.2-74.99,0-135.72-60.75-135.72-135.7s60.72-135.33,135.72-135.33c29.8,0,57.44,9.79,79.62,26.17V11.26h58.96v354.35h-58.56v-24.02h0ZM1460.98,183.35c-3.28-22.23-21.13-38.2-49.47-38.2-14.89,0-47.29,5.06-47.29,24.33,0,28.75,49.1,31.28,61.09,32.05,78.61,7.26,101.5,41.83,101.5,82.57,0,30.22-15.28,52.74-37.08,68.75-18.55,13.45-56.74,18.9-80.04,18.9-51.68,0-104.04-28.33-110.97-92.41h57.86c3.24,30.22,34.9,41.49,52.75,41.49,32.32,0,55.28-13.8,55.28-29.82,0-25.46-23.64-30.93-57.86-34.55-19.23-2.18-56.04-8.77-71.29-21.48-17.07-13.45-31.62-28.75-31.62-54.93,0-46.94,36.73-84.03,109.14-84.43,60.02-.35,105.5,35.32,106.91,87.31l-58.91.42h0ZM215.35,341.58c-23.15,17.15-51.23,26.34-80.04,26.2C60.02,367.78,0,307.03,0,232.08-.15,157.49,60.19,96.91,134.78,96.75c.18,0,.35,0,.53,0,29.86,0,57.49,9.79,80.04,26.17v-25.82h58.21v268.5h-58.21v-24.02ZM615.52,78.56h58.57V10.92h-58.57v67.64h0ZM674.08,78.56h-58.56,58.56ZM615.52,365.6h58.57V97.1h-58.57v268.5ZM674.08,365.6h-58.56,58.56ZM1217.24,341.58c-21.84,16.74-49.47,26.2-79.32,26.2-74.94,0-135.66-60.75-135.66-135.7s60.72-135.33,135.66-135.33c29.86,0,57.49,9.79,79.32,26.17v-25.82h58.91v268.5h-58.2l-.71-24.02ZM915.65,341.58c-22.19,16.74-50.18,26.2-80.04,26.2-74.58,0-135.68-60.75-135.68-135.7s61.1-135.33,135.68-135.33c29.86,0,57.49,9.79,80.04,26.17V11.26h58.2v354.35h-58.2v-24.02ZM1979.38,201.55c3.29-63.67-15.67-133.55-66.6-201.55-49.47,63.66-66.89,136.07-62.54,201.55h129.14ZM1857.87,252.07c-2.19-9.49-4.01-19.05-5.46-28.68h124.79c-1.45,9.63-3.26,19.19-5.45,28.68h-113.89,0ZM1886.97,324.14c8.01,13.33,17.27,25.88,27.64,37.47,10.21-11.3,19.3-24.05,27.68-37.47h-55.32ZM2174,201.9c14.55-30.22,24.77-64.03,29.47-101.86-84.74,7.29-151.33,48.36-196.1,101.86h166.64ZM2162.72,223.39c-5.78,10.13-12.02,19.22-18.53,28.68l-169.94-.71c5.47-9.07,10.93-19.27,17.13-27.96h171.34ZM2095.78,302.3c10.65-8.69,20.61-18.18,29.82-28.39l-422-.35c9.49,10.56,20.01,20.36,30.92,29.1l361.26-.36ZM1948.46,324.14c-2.5,12.09-3.96,24.37-4.34,36.7,40.36-1.8,82.2-14.19,120.05-36.7h-115.7,0ZM1666.52,223.39c6.16,10.13,12.37,19.22,19.3,28.68h169.16c-4.75-9.78-10.57-19.25-16.78-28.68h-171.68ZM1765.44,324.14c37.86,22.52,79.34,34.9,119.71,36.7-.47-12.31-1.8-24.58-4.01-36.7h-115.7,0ZM1821.84,201.9c-44.37-53.51-110.55-94.59-195.35-101.86,4.32,35.23,14.02,69.58,28.75,101.86h166.6Z"/>
  </g>
</svg>