<?xml version="1.0" encoding="UTF-8"?>
<svg id="Ebene_2" data-name="Ebene 2" xmlns="http://www.w3.org/2000/svg" viewBox="0 0 352.92 84.85">
  <defs>
    <style>
      .cls-1 {
        fill: #6cb71d;
      }

      .cls-2 {
        fill: #fba13b;
      }
    </style>
  </defs>
  <g id="Ebene_1-2" data-name="Ebene 1">
    <g>
      <g>
        <path class="cls-1" d="M82.55,64.67c-.28.12-.63.21-1.06.21-.19,0-.39-.02-.59-.04h-.14s-.1-.02-.1-.02c-.67,0-1.16.42-2.09,1.78-.48.7-1.07,1.57-1.87,2.17-.99.74-1.92,1.57-2.9,2.44-.87.78-1.77,1.58-2.74,2.33-2.39,1.86-5.1,3.54-8.28,5.12-1.48.74-3.01,1.23-4.49,1.72l-.61.2c-1.86.61-3.66.76-5.41.9-.69.06-1.38.11-2.07.2-.14.02-.28.03-.42.05-.26.03-.54.06-.69.1-.27.09-.63.19-1.05.19-.24,0-.53-.03-.83-.14-.27.09-.52.11-.69.11h-.29s-.23-.06-.23-.06c-.31-.07-.66-.12-1.04-.17-.63-.08-1.35-.18-2.08-.43-1.89-.66-3.76-1.41-5.57-2.13l-1.44-.57c-.13-.05-.26-.1-.4-.14-.63-.22-1.73-.6-2.46-1.58-1.22-.22-1.79-1.29-1.99-1.67-.05-.09-.19-.25-.4-.4-1.08-.76-2.66-2.75-3.07-4.17,0,0-.01-.05-.02-.05-1.11-.96-1.61-2.49-2.45-3.67-.83-1.16-2.47-1.95-3.89-1.85-.29.02.25,1.93.3,2.07,1.23,3.36,3.45,6.12,6.41,9.21.98,1.03,1.89,1.77,2.78,2.27.67.37,1.25.78,1.82,1.17.21.14.41.29.62.43.07.04.29.12.45.18.52.19,1.28.46,1.92,1.13.15-.02.29-.03.44-.03.79,0,1.4.29,1.8.49.08.04.16.08.25.11.69.26,1.38.53,2.07.81,1.05.43,2.04.83,3.06,1.15,1.08.35,2.27.49,3.53.64l.78.1c.22.03.43.04.65.04.38,0,.76-.03,1.13-.06.47-.03.93-.07,1.4-.07.11,0,.22,0,.33,0,.26,0,.52.03.78.04.3.02.6.04.9.04.52,0,.84-.07,1.1-.24l.47-.31h.56c3.78-.11,7.19-1.64,10.79-3.26.63-.28,1.25-.56,1.88-.84.6-.26,1.22-.67,1.85-1.09.4-.27.79-.56,1.17-.86.69-.52,1.4-1.06,2.21-1.52.93-.53,1.76-1.29,2.65-2.1.97-.89,1.97-1.8,3.21-2.53.16-.36.43-.86.97-1.2.12-.35.29-.88.74-1.37.6-.65,1.36-1.21,2.16-1.57.03-.06.05-.13.08-.19.36-.8.47-1.68.35-2.82-.1-.08-.19-.16-.27-.23Z"/>
        <path class="cls-1" d="M89.02,11.99c-.08-.21-.2-.53-.25-.57-1.07-.22-1.57-1.09-1.84-1.56-.04-.06-.07-.13-.11-.18l-.12-.17c-.28-.4-.57-.81-.76-.85-1.45-.34-2.44-1.28-2.86-2.71-.02-.08-.04-.14-.06-.19-.57-.37-1.06-.77-1.54-1.16-.75-.61-1.4-1.14-2.15-1.41-.46-.16-.92-.31-1.39-.47-1.49-.48-3.15-1.02-4.65-2.04-.28.1-.62.18-1,.18h-.15s-.09-.01-.09-.01c-.66-.06-1.14-.38-1.45-.62-.55-.03-1.11-.07-1.66-.11-.84-.06-1.64-.12-2.42-.12-.63,0-1.19.04-1.7.12-1.07.17-2.12.23-3.14.29-1.26.08-2.45.15-3.55.41-.52.12-1.05.22-1.58.32-1.56.29-2.91.54-3.95,1.46-.88.77-1.98.85-2.79.91-.27.02-.67.05-.8.1-.36.16-.76.49-1.19.83-.43.34-.91.73-1.47,1.06-.98.57-1.98,1.09-2.95,1.58-.63.33-1.27.65-1.89.99-.09.06-.32.31-.42.41-.13.14-.24.3-.36.45-.18.24-.36.47-.59.73-.32.36-.75.85-1.37,1.19-.42.23-.84.32-1.12.38l-.65.6c-1.06.98-2.12,1.97-3.14,2.99-1.1,1.1-2.63,2.36-.35,2.95,1.67.43,2.33-1.58,3.33-2.49.33-.3.66-.6.96-.92l.14-.15c1.34-1.42,2.72-2.89,4.67-3.93.58-.31,1.16-.77,1.77-1.25l.38-.3c1.67-1.31,3.49-2.25,5.26-3.16.55-.28,1.09-.57,1.63-.86l.72-.39.39.12c.31-.26.77-.63,1.43-.82.38-.11.76-.21,1.13-.31.43-.11.85-.22,1.27-.35.37-.11.73-.26,1.1-.4.87-.34,1.87-.72,2.97-.81,1.82-.15,3.65-.23,5.44-.23.88,0,1.77.02,2.65.06,1.27.05,2.45.37,3.58.67.4.11.81.21,1.21.31l.36.08c.67.15,1.43.32,2.18.61.95.37,1.82.87,2.56,1.31.38.23.67.5.87.7.01.01.02.02.03.03.45,0,1.23.07,1.87.69.4.39.9.76,1.42,1.15,1.04.77,2.22,1.64,3.06,3.02.13.22.35.47.57.73.66.78,1.18,1.76,2.06,2.31.27-.29.35-.67.55-1.06-.02-.04-.03-.08-.05-.12Z"/>
        <g>
          <path class="cls-1" d="M18.56,23.54c.1.17.17.26.21.26v.1l-.05.05s.02.05.05.05h.05l-.05.05c0,.07.02.1.05.1h.05v.16c.07.48.14,2.27.21,5.37l.05.16v.78l.05.31v.77l-.05.41-.1,2.02v.47c-.03.17-.05.36-.05.57,0,.34.02.62.05.83l.05,1.91c.03.28.07.69.1,1.24.03.55.05,1.07.05,1.55v1.55c0,.79.02,1.31.05,1.55,0,.1.02.19.05.26v.67l-.05.26v.41c0,.17.02.28.05.31v.36s-.05.09-.05.16v1.5h.1l-.1.41c-.03.52,0,2.02.1,4.49v1.24l.1.16c0,.17-.03.29-.1.36,0,.34-.03,1.07-.1,2.17,0,.38-.03.71-.1.98l-.05.88-.15.31v.16h-.05v.16l-.05.05h-.1l-.05.1c-.07.07-.12.1-.16.1l-.05.1c-.14.03-.29.06-.47.08-.17.02-.31,0-.41-.03l-.21-.1-.31-.16h-.1s-.05-.02-.05-.05l-.1-.1c-.28-.1-.53-.28-.77-.52-.1-.07-.16-.14-.16-.21-.07-.41-.1-.9-.1-1.45-.1-.17-.65-1.33-1.65-3.46l-.1-.1c-.03-.07-.09-.16-.16-.28-.07-.12-.12-.25-.16-.39-.14-.14-.24-.31-.31-.52-.03-.03-.05-.09-.05-.16s-.02-.14-.05-.21c-.07-.21-.12-.33-.16-.36-.28-.72-.53-1.31-.78-1.76-.03-.03-.09-.17-.16-.41,0-.07-.07-.22-.21-.47l-.67-1.34-.52-.98c-.1-.24-.28-.59-.52-1.06-.24-.47-.48-.9-.72-1.32-.21-.38-.64-1.31-1.29-2.79-.14-.21-.24-.4-.31-.57l-.16-.36-.1-.21-.16-.41-.21-.26-.05-.16-.1-.31-.67-1.45-.05.05-.16-.46-2.17-4.44c-.03-.07-.07-.15-.1-.23-.03-.09-.07-.18-.1-.28-.07.28-.07.45,0,.52l.05.62c0,.17-.02.31-.05.41l-.05.41c0,.69-.03,1.31-.1,1.86v.47c-.03.14-.05.29-.05.47,0,.52.02.96.05,1.34l.05,1.03.05,1.03c.03.41.05.88.05,1.39v2.64c0,.1.02.19.05.26v.57l-.05.21c-.03.14-.03.26,0,.36v.31l.05.1c0,.07-.02.12-.05.16l-.05.1v1.34h.05l-.05.36-.05,1.45.05,2.63c.03.1.05.33.05.67l-.05.62.05.1c.07.07.07.14,0,.21-.03.03-.05.09-.05.16,0,.62-.05,1.39-.16,2.33,0,.52-.03.91-.1,1.19l-.1,1.19-.1.31v.26h-.05c-.07,0-.07.03,0,.1,0,.1-.03.15-.1.15l-.05.05s-.05.1-.05.21l-.15.16s-.05.02-.05.05v.05c-.14.03-.29.07-.47.1-.17.03-.33.03-.47,0,0-.07-.05-.12-.16-.16-.1-.03-.21-.1-.31-.21,0-.03-.02-.05-.05-.05-.03.03-.05.03-.05,0-.03,0-.05-.03-.05-.1l-.1-.1-.36-.31c-.38-.28-.57-.53-.57-.78-.07-.55-.1-1.36-.1-2.43,0-.62.02-1.05.05-1.29.03-.41.05-.86.05-1.34v-.72c-.03-.21-.05-.43-.05-.67l-.05-.67.05-1.19c0-1-.02-1.53-.05-1.6v-.62s-.05-.09-.05-.16c-.07-1.65-.1-3.41-.1-5.27l.16-2.63s.03-.1,0-.21l-.1-.31-.05-.16c-.07-.45-.09-.84-.05-1.19,0-.17.02-.28.05-.31.03-.03.05-.16.05-.36l-.05-.1v-1.5l.1-.36h.1c-.1-.17-.16-.38-.16-.62l.05-1.39c.07-.76.09-1.36.05-1.81-.03-.07-.03-.17,0-.31v-.21c0-.1-.02-.17-.05-.21-.03-.03-.05-.1-.05-.21l.05-.31.05-.31v-.41c0-.38-.02-.67-.05-.88v-.26c-.07-.34-.12-.53-.16-.57l-.1-.21c-.03-.41.02-1.14.16-2.17.1-.69.17-1.05.21-1.08l.16-.36c0-.07.16-.1.47-.1l.1-.26.16-.26.57.1c.41.03.79.16,1.14.36.1.07.2.21.28.41.09.21.15.36.18.47.03,0,.05.03.05.1-.03.03-.05.09-.05.16h.1v.26h.05c.76,1.52,1.34,2.72,1.76,3.62l.62,1.5c.03.07.16.33.36.77l.36.72c.07.1.36.71.88,1.81.48,1,.81,1.64.98,1.91l.1.21s.05.08.05.13.02.1.05.13l.16.21.05.21,1.6,3.2,1.19,2.38,1.19,2.79.36.52.1.1.62,1.14c.03.24.1.48.21.72l.1.1s.06.1.08.18c.02.09.08.22.18.39l.36.83.16.36-.1.05c.17.17.38.52.62,1.03l.16.41c-.07-1.38-.1-2.05-.1-2.02v-.72s-.05-.09-.05-.16c-.07-1.45-.1-2.91-.1-4.39-.07-1.24-.1-1.83-.1-1.76l.16-3.1-.16-.62-.05-.16c-.07-.48-.1-.95-.1-1.39.03-.07.05-.14.05-.21s.02-.12.05-.16.05-.15.05-.36l-.05-.16v-1.65l.05-.41c.07.03.12.03.16,0-.14-.21-.19-.64-.16-1.29.07-.76.1-1.29.1-1.6l-.05-1.09.05-.31c0-.1-.02-.17-.05-.21v-.21s-.05-.1-.05-.21l.05-.31.05-.31v-.31c0-.38-.02-.65-.05-.83v-.26c0-.17-.03-.33-.1-.47l-.1-.21v-.26c0-.45.09-.91.26-1.4.1-.45.19-.71.26-.78l.16-.26c0-.07.16-.07.47,0l.1-.1c.1-.1.17-.16.21-.16.14,0,.39.03.75.1.36.07.65.15.85.26l.26.31Z"/>
          <path class="cls-1" d="M39.02,60.43l-.16-.1v-.16h-.05v.05s-.05-.02-.05-.05v-.1l-.05.05v-.1l-.05-.05c-.24-.58-.64-2.07-1.19-4.44l-.1-.1s-.05-.16-.05-.36l-.1-.36c-.07-.21-.1-.41-.1-.62-.1-.31-.16-.57-.16-.77l-.21-1.03c0-.07-.07-.36-.21-.88l-.1-.98c-.03-.21-.17-.71-.41-1.5.03.1-.03-.16-.21-.77-.14.03-.43.05-.88.05h-.05s-.09.03-.16,0h-.26s-.09.05-.16.05l-.1-.05h-.15c-.14,0-.26-.02-.36-.05h-.31c-.1,0-.17-.02-.21-.05h-.67l-.36.05h-.41l-.52.05h-1.14l-.05.05-.1-.05h-.1c-.1,0-.19.02-.26.05h-.1l-.05-.05h-.47v.05l-.16-.05h-.57v.16c-.03.07-.05.17-.05.31v.1l-.1.16-.05.1-.26,1.19h.05v.05l-.16.31c-.21.72-.5,1.96-.88,3.72l-.1.57-.16.52v.16c0,.14-.03.24-.1.31l-.62,1.96-.1.46c-.03.24-.09.4-.16.47-.1.24-.17.4-.21.47l-.31.83v.1s-.02.05-.05.05h-.05l-.05.05v.1c0,.07-.05.1-.16.1l-.1.1c-.07.07-.12.1-.16.1v.05l-.05.05c-.48,0-.72-.05-.72-.16l-.16-.16-.21-.21s-.02-.05-.05-.05-.05-.02-.05-.05v-.1l-.05-.1c-.17-.17-.33-.43-.47-.78-.07-.14-.1-.24-.1-.31.07-.86.29-1.95.67-3.25.07-.21.14-.4.21-.59.07-.19.12-.37.16-.54l.1-.62.1-.62c.14-.38.28-.88.41-1.5.14-.62.24-1.15.31-1.6l.05-.21s.05-.09.05-.16c0-.1.02-.17.05-.21v-.16l.26-1.19c-.24,0-.36-.03-.36-.1l-.05.05h-.05s-.02-.05-.05-.05h-.05l-.05-.05-.1-.1-.05-.05c-.14-.24-.16-.38-.05-.41,0-.03,0-.09.03-.15.02-.07.04-.1.08-.1s.05-.02.05-.05c-.03,0-.05-.02-.05-.05h.05l.05-.05.1-.21c.14-.21.22-.31.26-.31.1-.03.29-.05.57-.05.21-.9.38-1.61.52-2.14.14-.53.38-1.39.72-2.56v-.72c0-.24.09-.65.26-1.24.07-.21.12-.33.16-.36l.1-.31v-.15l.16-.67c0-.14.03-.29.08-.47.05-.17.08-.29.08-.36l.16-.41s.09.05.16.05v-.21c0-.24.05-.62.16-1.14.34-1.21.57-2.17.67-2.89l.16-.57v-.21c0-.17.03-.38.1-.62l.1-.36c.14-.45.24-.95.31-1.5l.05-.31v-.31c.03-.1.03-.22,0-.36-.03-.17-.03-.28,0-.31.07-.69.29-1.55.67-2.58.21-.72.34-1.17.41-1.34.17-.24.26-.38.26-.41.03-.1.17-.12.41-.05l-.05-.1.05-.05.05-.1.1-.36v-.05l.05-.05c.07-.03.17-.08.31-.13.14-.05.24-.08.31-.08.21,0,.34.09.41.26l.05-.05s.09.03.16.1l.05.1.36.26c.28.24.48.47.62.67.48,1.89.77,3.24.88,4.03.1.69.21,1.22.31,1.6l.21.88.21.78c.1.55.24,1.25.41,2.09.17.84.33,1.56.47,2.14l.1.21c0,.14.03.31.1.52l.1.21.88,3.67c.24,1.38.45,2.31.62,2.79.03.14.09.45.16.93.07.48.19,1.24.36,2.27l.16.21.16.36v.16c.14.24.26.69.36,1.34.03.1.05.22.05.36-.07.1-.07.24,0,.41l.1.1.16.67.15.88.05.47h-.1c.14.14.26.53.36,1.19.17,1.07.34,1.89.52,2.48,0,.07,0,.15.03.23.02.09.04.15.08.18,0,.07.02.12.05.16.07.14.1.29.1.47,0,.14.02.22.05.26.07.41.14.74.21.98,0,.03.02.1.05.18.03.09.07.15.1.18,0,.03.03.09.1.16.07.07.1.12.1.16.17.28.22.71.15,1.29,0,.34-.02.53-.05.57-.03.03-.05.09-.05.16s-.12.12-.36.15l-.05.1-.1.1-.52.1c-.38.07-.65.09-.83.05l-.26-.16ZM35.04,45.29l-.36-1.19c0-.14-.19-1.1-.57-2.89l-.1-.31s-.05-.08-.05-.13-.02-.08-.05-.08c-.03-.1-.05-.24-.05-.41,0-.1-.02-.17-.05-.21l-.16-.67-.05-.41v-.05l-.31-1.5v.05h-.05l-.05-.47c-.14-.86-.47-2.36-.98-4.49l-.16-.88-.57,2.63v.16c0,.1-.05.36-.16.78,0,.03,0,.08.03.13.02.05,0,.11-.03.18-.03.1-.05.22-.05.36-.03.17-.09.33-.16.47-.07.14-.12.24-.16.31-.17.93-.31,1.52-.41,1.76l-.26.83c-.03.1-.12.53-.26,1.29-.03.55-.09.88-.16.98-.03.03-.1.34-.21.93-.17.86-.34,1.67-.52,2.43l-.1.47h.05l.1-.05h.05l1.76-.05.93.1.21-.1c.07-.03.21-.05.41-.05h.1s.09.05.16.05h.52l.1.05v.05c.07-.07.19-.09.36-.05l.47.05.47-.05h.31Z"/>
          <path class="cls-1" d="M60.36,26.12c-.03.07-.1.13-.21.18-.1.05-.17.08-.21.08h-.16v.05h-.15s-.02.03-.05,0h-.1c-.41.1-1.52.14-3.31.1l-.05.05c-.07,0-.12-.02-.16-.05h-.41s-.09.05-.16.05c-.1,0-.17-.02-.21-.05h-.26c-.1-.03-.26-.05-.47-.05-.24,0-.4-.02-.47-.05-.1,0-.19-.02-.26-.05h-.26c-.24,0-.45.02-.62.05.07.76.1,1.98.1,3.67l-.05,1.34c0,.28.02.52.05.72v2.48c0,1,.02,1.53.05,1.6v.16l-.05.21.1.41c.03.38.05,1.34.05,2.89v2.12l-.16,2.53c0,.07.03.24.1.52l.1.16c.03.17.05.55.05,1.14l-.1.31s-.05.14-.05.31l.05.16v1.39l-.1.36h-.1c.07.14.1.38.1.72,0,.55-.02.95-.05,1.19,0,.21,0,.46-.03.75-.02.29,0,.65.03,1.06v.52c0,.07.02.12.05.16v.52l-.05.31v.41c0,.38.02.67.05.88,0,.1.02.19.05.26,0,.17.05.36.16.57l.05.21c.03.41-.02,1.15-.15,2.22-.1.72-.17,1.1-.21,1.14-.07.21-.1.33-.1.36-.07.07-.24.1-.52.1l-.16.26-.1.26c-.14,0-.41-.04-.8-.13-.4-.09-.7-.18-.9-.28-.07-.03-.17-.21-.31-.52l-.16-.41v-.26h-.05s-.05-.03-.05-.1l.05-.16h-.1v-.26c-.21-1.1-.33-3.22-.36-6.35l-.05-.1c0-.17.02-.31.05-.41,0-.17-.02-.29-.05-.36v-.31c-.03-.1-.05-.22-.05-.36s.02-.26.05-.36c.03-.1.05-.22.05-.36,0-.65.03-1.26.1-1.81l.05-.41v-.47c0-.48-.02-.91-.05-1.29l-.05-.98-.05-1.03c-.03-.38-.05-.81-.05-1.29,0-.52.02-.96.05-1.34v-1.45s-.05-.1-.05-.21c0-.14.02-.24.05-.31v-.83s-.05-.09-.05-.16.02-.12.05-.16v-.05c.03-.34.05-.78.05-1.29h-.1l.1-.36c.03-.38.04-.82.03-1.32-.02-.5-.03-1.02-.03-1.58-.03-.21-.05-.58-.05-1.14v-1.24l-.05-.1c0-.1.02-.19.05-.26v-.15c0-.62.05-1.41.16-2.38l.05-.57v-.67l.05-.72h-.26c-.07,0-.12-.02-.16-.05h-.1c-.14,0-.26.02-.36.05h-.05s-.05-.02-.05-.05h-.78v.05l-.16-.05c-.1-.03-.34-.05-.72-.05-.52,0-.96.02-1.34.05h-.62l-.05.05-.1-.05h-.1c-.45,0-.83-.02-1.14-.05-.03-.03-.12-.05-.26-.05h-.26l-.57-.1c-.1,0-.16-.02-.16-.05-.03,0-.05.02-.05.05l-.1-.05h-.05s-.05-.02-.05-.05-.02-.05-.05-.05c-.1-.07-.16-.12-.16-.16h-.05c-.17-.28-.19-.45-.05-.52.03,0,.07-.05.1-.16,0-.07.02-.12.05-.15.03,0,.03-.02,0-.05.07-.07.12-.1.16-.1l.16-.21c.14-.24.24-.36.31-.36.48-.07,1.08-.1,1.81-.1.21.03.43.05.67.05.14,0,.26-.02.36-.05h2.27l.1-.05h.1c.34,0,.64-.02.88-.05h1.81l1.39.1s.14.02.31-.05l.05-.05c.14-.07.34-.07.62,0h.21s.09.05.16.05h.83l.21.05v.1c.1-.1.31-.14.62-.1.62.07,1.08.09,1.39.05h.16c.07.03.12.03.16,0h.36s.09.05.16.05c.24.03.48.03.72,0,.07,0,.12-.02.16-.05h.1c.07,0,.12-.02.16-.05l.1-.05h.21c.24,0,.55.05.93.16.38.03.59.09.62.15.03,0,.08,0,.13.03.05.02.08.13.08.34l.1.1.16.1-.31,1.03Z"/>
          <path class="cls-1" d="M78.54,24.99l.1.67v.46s.02.03.05,0v.52h.1v.52c.41,3.13.62,8.41.62,15.81l.1.36-.1,2.07v.72c0,.48-.02.79-.05.93l-.26,1.96c-.24,1.72-.5,3.15-.78,4.29-.07.34-.26.98-.57,1.91-.79,2.17-1.67,3.66-2.64,4.47-.96.81-2.33,1.21-4.08,1.21-1.21,0-2.43-.29-3.67-.88-.62-.38-1.15-.88-1.6-1.5l-1.03-1.45c-.03-.07-.07-.15-.1-.26-.03-.1-.05-.21-.05-.31-.41-.93-.76-1.91-1.03-2.94v.05h-.1l-.16-.98c-.62-4.55-.98-8.35-1.09-11.42,0-.79.02-1.48.05-2.07v-1.6l-.05-.36c0-.28.02-.48.05-.62l.05-.41c.1-2.1.26-4.13.46-6.1.03-.1.05-.23.05-.39s.02-.3.05-.44l.1-1.03c.03-.17.05-.4.05-.67l.41-2.43v-.26.05l.1-.05v-.21l.05-.05s.09-.07.16-.21c0-.03.03-.05.1-.05l.1-.05c.48-.17.78-.19.88-.05l.21.05c.14.03.22.1.26.21h.16l.05.1.05.1.26.31c.07.1.22.34.47.72.07.21.1.34.1.41l-.41,7.6c-.14,2.1-.21,3.91-.21,5.43,0,1.14.02,2.07.05,2.79.14,3.82.43,6.84.88,9.04.1.55.19.93.26,1.14.07.21.14.4.21.57,1.34,4,2.62,6.18,3.82,6.56.28.07.5.1.67.1.65,0,1.24-.4,1.76-1.19.03,0,.12-.26.26-.78l.47-1.5c.03-.07.1-.22.21-.47.07-.07.12-.22.16-.47v-.26c.03-.14.22-1.02.57-2.64,0-.14.02-.26.05-.36l.1-.31v-.16l.15.26v-.21c-.03-.28.02-1.15.16-2.64.28-2.07.38-4.24.31-6.51v-1.81c-.03-.1-.05-.29-.05-.57,0-.31.02-.59.05-.83v-.83c0-.79-.03-1.91-.1-3.36-.07-.34-.1-.77-.1-1.29l-.16-.77-.1-.52c-.03-.41-.05-1.12-.05-2.12,0-1.17.02-2.1.05-2.79.03-1.27.09-2.02.16-2.22l.16-.67c0-.14.12-.19.36-.16h.1l.16-.41.16-.36.57.16c.45.1.81.29,1.08.57.17.17.31.45.41.83Z"/>
          <path class="cls-1" d="M96.16,60.17l-.21-.05v-.1h-.05s-.03-.02,0-.05h-.1v-.1c-.21-.28-.34-1.07-.41-2.38l-.1-.05.05-.21v-.16c-.07-.07-.1-.17-.1-.31,0-.07.02-.12.05-.16.03-.03.05-.1.05-.21,0-.21.02-.36.05-.47v-.36c0-.1.02-.19.05-.26v-.21l-.16-1.19-.1-.62-.16-.62c-.03-.24-.07-.49-.1-.75-.03-.26-.07-.46-.1-.59l-.05-.1s-.05-.09-.05-.16v-.26c0-.07-.03-.17-.1-.31,0-.03-.02-.05-.05-.05l.05-.1v-.05l-.16-.62h-.05v-.21c-.1-.52-.38-1.14-.83-1.86l-.1-.21c-.03-.17-.1-.29-.21-.36h-.05l-.05-.1v-.1c-.17-.17-.41-.53-.72-1.09l-.26-.31c-.14-.1-.21-.17-.21-.21l-.41-.36-.36-.36h-.05l-.05-.05v-.05h-.05l-.1-.1v-.05l-.05-.05-.16-.21-.05-.05s-.03-.12,0-.26c-1.24.38-2.05.57-2.43.57-.14.03-.31.05-.52.05-.1-.07-.16-.12-.16-.15h-.05c0,.45-.05,1.03-.16,1.76l.16.62.05.16c.07.48.09.93.05,1.34,0,.17-.02.28-.05.31-.07.14-.1.28-.1.41l.05.1v1.55l-.1.41h-.15c.14.21.19.62.15,1.24-.1.93-.14,1.76-.1,2.48v.47l.05.1v.21c0,.17-.03.36-.1.57,0,.45.02.79.05,1.03,0,.07.02.12.05.15,0,.1.05.24.16.41l.05.21v.26c0,.34-.07.71-.21,1.09-.1.38-.17.59-.21.62l-.16.16s-.19.05-.46.05l-.16.1c-.07.07-.12.1-.16.1l-1.65-.26c-.07,0-.16-.07-.26-.21l-.21-.21v-.16h-.05v-.16l-.05.05s-.03-.07,0-.1v-.05c-.17-.62-.26-2.2-.26-4.75l-.05-.16c-.07-.07-.07-.19,0-.36v-.67l-.05-.31.1-.78c0-.76.03-1.38.1-1.86l.05-.52v-.47c.03-.14.05-.36.05-.67,0-.38-.02-.67-.05-.88l-.05-1.09-.05-1.24c-.03-.45-.05-.95-.05-1.5,0-.62.02-1.15.05-1.6v-1.45c0-.14-.02-.24-.05-.31-.03-.07-.05-.17-.05-.31s.02-.26.05-.36l.05-.26v-.41c-.03-.1-.05-.22-.05-.36v-.16c0-.07.02-.12.05-.16v-1.65h-.05l.05-.41c.03-.69,0-2.22-.1-4.6,0-.27.02-.53.05-.77,0-.34-.02-.53-.05-.57l-.05-.16c0-.1.02-.17.05-.21v-.16c0-.31.03-1.08.1-2.32v-1.09c.03-.07.05-.22.05-.47,0-.27.02-.46.05-.57,0-.14.02-.22.05-.26v-.21l.05.05v-.21l.05-.05.1-.05c0-.14.05-.22.16-.26.03,0,.05-.02.05-.05v-.05c.14-.03.3-.07.49-.1.19-.03.34-.03.44,0l.21.05h.05l.31-.16c1.1-.34,2.12-.52,3.05-.52.38,0,1.05.07,2.01.21l1.24.31c.86.34,1.77.88,2.74,1.6.03,0,.09.03.16.1l.1.1.15.16.16.1c.48.52.96,1.2,1.42,2.04.47.84.8,1.59,1.01,2.25.14.45.21,1.31.21,2.58l.1.52.05.1.05.46c0,.14-.03.38-.1.72l-.1.31-.16.31.05.16c-.14.59-.28,1.05-.41,1.39l-.21.31h-.1v.1c0,.21-.14.53-.41.98-.55.79-1.09,1.5-1.6,2.12l-.21.21c-.1.03-.16.09-.16.16,0,.03-.03.09-.1.16-.07.07-.14.12-.21.16-.17.17-.59.47-1.24.88-.28.21-.41.33-.41.36-.14.03-.29.14-.47.31-.1.03-.19.09-.26.16-.07.07-.1.12-.1.16.14-.03.26-.03.36,0,.59.21,1.1.45,1.55.72.45.28,1.02.76,1.71,1.45.41.41.64.65.67.72l1.24,2.07v.1l.1.1c0,.07.05.16.16.26.31.69.6,1.77.88,3.26.03.03.05.21.05.52,0,.41-.02.78-.05,1.08l.1.21.16.16c.07.21.1.43.1.67,0,.07-.02.12-.05.16l-.1.21.05.1.05.31v.47l-.1.21h-.1c.14.03.17.22.1.57-.07.55-.09.95-.05,1.19l.05.1-.05.1s.02.05.05.05l.05.1-.05.1s-.05.09-.05.15c0,.14.03.28.1.41v.1s.02.05.05.05l.1.1.1.05c.07.14.03.28-.1.41l-.36.1-.47.16c-.07,0-.12.02-.16.05l-.05.05h-.05c-.93.34-1.46.53-1.6.57l-.36-.1ZM87.07,25.45c.17.76.26,1.91.26,3.46-.03.48-.05.98-.05,1.5s.03,1.02.1,1.5v1.96c0,1.07.02,1.72.05,1.96v.46c0,.1.02.17.05.21v.21l.1,6.15v.36c.24-.14.4-.21.47-.21l.31-.1.1-.05h.16s.03-.02,0-.05c.03,0,.09,0,.16-.03.07-.02.1-.04.1-.08.07,0,.12-.02.16-.05.03-.03.09-.05.16-.05,1.89-1.14,3.29-2.39,4.19-3.77l.05-.1.1-.31.16-.26c0-.14.05-.31.16-.52,0-.07.03-.15.08-.23.05-.09.09-.16.13-.23.07-.14.21-.57.41-1.29l.16-.62c.07-.9-.05-2.02-.36-3.36-.17-.93-.31-1.52-.41-1.76,0-.07-.02-.12-.05-.16-.1-.1-.16-.22-.16-.36v-.1s-.05-.08-.05-.13-.02-.09-.05-.13l-.1-.15-.05-.05s-.03-.07,0-.1l-.05-.1-.36-.72h-.05l-.1-.21c-.45-.76-1.05-1.41-1.81-1.96-.34-.24-.59-.38-.72-.41h-.1l-.1-.1-.1-.05c-.76-.24-1.34-.36-1.76-.36-.28,0-.62.05-1.03.16-.1,0-.17.02-.21.05l.1.21Z"/>
          <path class="cls-1" d="M118.89,60.43l-.16-.1v-.16h-.05v.05s-.05-.02-.05-.05v-.1l-.05.05v-.1l-.05-.05c-.24-.58-.64-2.07-1.19-4.44l-.1-.1s-.05-.16-.05-.36l-.1-.36c-.07-.21-.1-.41-.1-.62-.1-.31-.16-.57-.16-.77l-.21-1.03c0-.07-.07-.36-.21-.88l-.1-.98c-.03-.21-.17-.71-.41-1.5.03.1-.03-.16-.21-.77-.14.03-.43.05-.88.05h-.05s-.09.03-.16,0h-.26s-.09.05-.16.05l-.1-.05h-.15c-.14,0-.26-.02-.36-.05h-.31c-.1,0-.17-.02-.21-.05h-.67l-.36.05h-.41l-.52.05h-1.14l-.05.05-.1-.05h-.1c-.1,0-.19.02-.26.05h-.1l-.05-.05h-.47v.05l-.16-.05h-.57v.16c-.03.07-.05.17-.05.31v.1l-.1.16-.05.1-.26,1.19h.05v.05l-.16.31c-.21.72-.5,1.96-.88,3.72l-.1.57-.16.52v.16c0,.14-.03.24-.1.31l-.62,1.96-.1.46c-.03.24-.09.4-.16.47-.1.24-.17.4-.21.47l-.31.83v.1s-.02.05-.05.05h-.05l-.05.05v.1c0,.07-.05.1-.16.1l-.1.1c-.07.07-.12.1-.16.1v.05l-.05.05c-.48,0-.72-.05-.72-.16l-.16-.16-.21-.21s-.02-.05-.05-.05-.05-.02-.05-.05v-.1l-.05-.1c-.17-.17-.33-.43-.47-.78-.07-.14-.1-.24-.1-.31.07-.86.29-1.95.67-3.25.07-.21.14-.4.21-.59.07-.19.12-.37.16-.54l.1-.62.1-.62c.14-.38.28-.88.41-1.5.14-.62.24-1.15.31-1.6l.05-.21s.05-.09.05-.16c0-.1.02-.17.05-.21v-.16l.26-1.19c-.24,0-.36-.03-.36-.1l-.05.05h-.05s-.02-.05-.05-.05h-.05l-.05-.05-.1-.1-.05-.05c-.14-.24-.16-.38-.05-.41,0-.03,0-.09.03-.15.02-.07.04-.1.08-.1s.05-.02.05-.05c-.03,0-.05-.02-.05-.05h.05l.05-.05.1-.21c.14-.21.22-.31.26-.31.1-.03.29-.05.57-.05.21-.9.38-1.61.52-2.14.14-.53.38-1.39.72-2.56v-.72c0-.24.09-.65.26-1.24.07-.21.12-.33.16-.36l.1-.31v-.15l.16-.67c0-.14.03-.29.08-.47.05-.17.08-.29.08-.36l.16-.41s.09.05.16.05v-.21c0-.24.05-.62.16-1.14.34-1.21.57-2.17.67-2.89l.16-.57v-.21c0-.17.03-.38.1-.62l.1-.36c.14-.45.24-.95.31-1.5l.05-.31v-.31c.03-.1.03-.22,0-.36-.03-.17-.03-.28,0-.31.07-.69.29-1.55.67-2.58.21-.72.34-1.17.41-1.34.17-.24.26-.38.26-.41.03-.1.17-.12.41-.05l-.05-.1.05-.05.05-.1.1-.36v-.05l.05-.05c.07-.03.17-.08.31-.13.14-.05.24-.08.31-.08.21,0,.34.09.41.26l.05-.05s.09.03.16.1l.05.1.36.26c.28.24.48.47.62.67.48,1.89.77,3.24.88,4.03.1.69.21,1.22.31,1.6l.21.88.21.78c.1.55.24,1.25.41,2.09.17.84.33,1.56.47,2.14l.1.21c0,.14.03.31.1.52l.1.21.88,3.67c.24,1.38.45,2.31.62,2.79.03.14.09.45.16.93.07.48.19,1.24.36,2.27l.16.21.16.36v.16c.14.24.26.69.36,1.34.03.1.05.22.05.36-.07.1-.07.24,0,.41l.1.1.16.67.15.88.05.47h-.1c.14.14.26.53.36,1.19.17,1.07.34,1.89.52,2.48,0,.07,0,.15.03.23.02.09.04.15.08.18,0,.07.02.12.05.16.07.14.1.29.1.47,0,.14.02.22.05.26.07.41.14.74.21.98,0,.03.02.1.05.18.03.09.07.15.1.18,0,.03.03.09.1.16.07.07.1.12.1.16.17.28.22.71.15,1.29,0,.34-.02.53-.05.57-.03.03-.05.09-.05.16s-.12.12-.36.15l-.05.1-.1.1-.52.1c-.38.07-.65.09-.83.05l-.26-.16ZM114.92,45.29l-.36-1.19c0-.14-.19-1.1-.57-2.89l-.1-.31s-.05-.08-.05-.13-.02-.08-.05-.08c-.03-.1-.05-.24-.05-.41,0-.1-.02-.17-.05-.21l-.16-.67-.05-.41v-.05l-.31-1.5v.05h-.05l-.05-.47c-.14-.86-.47-2.36-.98-4.49l-.16-.88-.57,2.63v.16c0,.1-.05.36-.16.78,0,.03,0,.08.03.13.02.05,0,.11-.03.18-.03.1-.05.22-.05.36-.03.17-.09.33-.16.47-.07.14-.12.24-.16.31-.17.93-.31,1.52-.41,1.76l-.26.83c-.03.1-.12.53-.26,1.29-.03.55-.09.88-.16.98-.03.03-.1.34-.21.93-.17.86-.34,1.67-.52,2.43l-.1.47h.05l.1-.05h.05l1.76-.05.93.1.21-.1c.07-.03.21-.05.41-.05h.1s.09.05.16.05h.52l.1.05v.05c.07-.07.19-.09.36-.05l.47.05.47-.05h.31Z"/>
          <path class="cls-1" d="M137.39,59.81c-.07.07-.12.1-.16.1h-.1v.05h-.1c-.21.07-.79.1-1.76.1h-.31l-.1.05h-.21l-.1-.05c-.14,0-.24-.02-.31-.05h-.26c-.07,0-.12-.02-.16-.05h-.67l-.21.05c-.14,0-.26.02-.36.05-.1.03-.24.05-.41.05h-1.03s-.07.03-.1,0h-.31v.05l-.1-.05h-.41v.05l-.16-.05-1.34.05h-.41l-.05.05h-.05l-.05-.05h-.57c-.03.1-.07.16-.1.16l-.67-.1c-.48-.1-.81-.22-.98-.36-.14-.03-.24-.21-.31-.52l-.21-.41.05-.15c0-.07-.02-.1-.05-.1h-.05v-.26h-.05v-.26c-.14-.86-.24-2.96-.31-6.3l-.1-.1c0-.17.02-.31.05-.41v-.36c-.07-.21-.1-.43-.1-.67,0-.14.02-.26.05-.36.03-.1.05-.22.05-.36,0-.62.03-1.21.1-1.76l.05-.41v-.47c.03-.1.05-.28.05-.52,0-.34-.02-.6-.05-.78l-.05-.93c-.07-.34-.1-1.1-.1-2.27l-.05-.57.05-.77v-1.45c-.03-.07-.05-.16-.05-.26l.05-.31v-.78l-.05-.16c0-.07.02-.12.05-.16v-.1c.03-.24.05-.67.05-1.29h-.1l.1-.36c.03-.52,0-1.89-.1-4.13v-1.29l-.05-.16v-.21l.05-.16.1-2.53v-.67c0-.34.02-.57.05-.67,0-.24.02-.47.05-.67,0-.34.02-.59.05-.72,0-.21.02-.33.05-.36v-.31h.05v-.26l.05-.05.05-.1.1-.21c0-.07.03-.14.1-.21.03,0,.05-.02.05-.05v-.05c.07-.07.21-.12.41-.16.21-.03.38-.03.52,0,0,.07.07.12.21.16.1.03.19.12.26.26,0,.07.03.07.1,0h.05l.16.31c.38.38.64.65.77.83l.21.41c.14.72.21,2.12.21,4.19-.03.45-.05.93-.05,1.45,0,.28.02.52.05.72v.72c.03.21.05.79.05,1.76s.02,1.55.05,1.76v.41c0,.1.02.17.05.21v.16c.03.31.05.84.05,1.6v2.02c0,.83.02,1.33.05,1.5l-.21,2.48c0,.1.02.17.05.21l.16.46c.07.38.09.76.05,1.14,0,.17-.02.28-.05.31-.07.07-.1.17-.1.31l.05.1v1.39l-.1.36h-.1c.1.1.15.29.15.57l-.05,1.29c-.07.79-.09,1.4-.05,1.81v.52c0,.07.02.12.05.16v.52l-.05.31v.36c0,.41.02.72.05.93l.05.21c0,.17.05.36.16.57l.05.26c.07.34.02,1.07-.16,2.17v.05h.1c.21,0,.4-.02.57-.05h.83v-.05c.1-.03.29-.05.57-.05s.5-.02.67-.05h.52l.88.05.1-.05.1-.05c.07-.03.19-.05.36-.05.03.03.09.05.16.05,0,.03.02.05.05.05l.05-.05h.46l.16.05v.05c.07-.07.19-.09.36-.05l.41.05.41-.05.1.05h.1l.1-.05.1.05h.05c.17,0,.31-.02.41-.05h.16l.1-.05.05-.05h.16l.46.1c.21.03.31.09.31.16l.1.05c.07.03.07.14,0,.31l.05.05.1.1s-.05.12-.05.26c0,.07-.02.18-.05.34-.03.16-.09.28-.16.39,0,.03-.03.09-.1.16Z"/>
        </g>
        <path class="cls-1" d="M140.28,43.87c.58-.67,1.86-2.01,3.9-3.12,1.68-.91,3.22-1.31,4.28-1.5-1.61.96-4.22,2.74-6.42,5.52-.84,1.07-2.11,2.71-2.84,5.19-.14.47-.24.92-.32,1.35,2.4-.64,10.01-3.01,14.73-10.48,2.12-3.36,2.95-6.64,3.31-8.91-1.46-.35-3.59-.68-6.1-.41-7.15.79-15.32,6.26-15.36,12.71,0,1.08.22,2.99,1.83,5.33.33-1.29,1.11-3.54,2.98-5.69Z"/>
        <path class="cls-1" d="M137.3,30.51c.22-.43.74-1.32,1.68-2.18.78-.71,1.56-1.12,2.1-1.36-.74.72-1.91,2.01-2.72,3.79-.31.68-.78,1.72-.84,3.15-.01.27,0,.52,0,.76,1.2-.65,4.97-2.92,6.53-7.53.7-2.08.72-3.94.61-5.2-.83,0-2.01.1-3.32.58-3.73,1.35-7.39,5.35-6.57,8.8.14.58.5,1.57,1.68,2.62.01-.73.13-2.04.86-3.44Z"/>
        <g>
          <path class="cls-1" d="M36.93,66.97c-.2,0-.31-.31-.31-.59,0-.18.05-.35.16-.4.63-.3,1.25-.85,2.01-.85.43,0,.55.29.55.48,0,.78-.31,1.59-.31,2.43,0,.74.05,1.47.1,2.23,0,1.42.35,2.81.86,4.15.01.04.01.07.01.1,0,.27-.29.48-.54.48-.16,0-.3-.08-.37-.25-.64-1.75-.84-3.69-.84-5.69,0-.97.07-1.93.27-2.88-.42.14-1.23.78-1.6.78Z"/>
          <path class="cls-1" d="M44.2,65.76s.01-.07.03-.09c.1-.17.26-.34.52-.34,2.52.17,3.61,2.96,3.61,5.14s-1.62,4.45-3.95,4.46c-2.15,0-2.84-2.57-2.84-4.32s.73-4.12,2.64-4.85ZM47.28,70.18c0-1.74-.65-3.59-2.26-4.01-.08.1-.5.2-.65.2-1.53.2-1.89,2.91-1.89,4.23,0,1.41.44,3.47,2.26,3.58,1.89-.03,2.54-2.4,2.54-3.99Z"/>
          <path class="cls-1" d="M52.17,65.76s.01-.07.03-.09c.1-.17.26-.34.52-.34,2.52.17,3.61,2.96,3.61,5.14s-1.62,4.45-3.95,4.46c-2.15,0-2.84-2.57-2.84-4.32s.73-4.12,2.64-4.85ZM55.25,70.18c0-1.74-.65-3.59-2.26-4.01-.08.1-.5.2-.65.2-1.53.2-1.89,2.91-1.89,4.23,0,1.41.44,3.47,2.26,3.58,1.89-.03,2.54-2.4,2.54-3.99Z"/>
          <path class="cls-1" d="M57.84,67.16c.21,0,.29.29.29.51,0,.68.94.94,1.55.94.38,0,1.21-.29,1.21-.78,0-.65-1.5-.95-2.06-.95-.52,0-1.06.13-1.33.13-.16,0-.25-.18-.25-.39,0-.2.08-.43.29-.5.26-.08.61-.12,1-.12,1.3,0,3.03.44,3.03,1.68,0,1.01-.93,1.77-2.02,1.77-1,0-2.01-.6-2.01-1.72,0-.43.14-.57.3-.57ZM64.22,65.98c.17,0,.31.08.31.22,0,.08-.04.17-.14.25-2.48,2.57-4.54,5.59-5.83,8.85-.03.22-.29.35-.5.35-.12,0-.22-.05-.22-.18,0-.04.01-.1.04-.17,1.29-3.43,3.34-6.6,6.02-9.19.1-.1.21-.13.33-.13ZM61.75,71.14c0-.21.1-.39.31-.39,1.1.33,2.38,1.19,2.38,2.49,0,.94-.94,1.5-1.83,1.5-.82,0-1.49-.74-1.49-1.61,0-.56.29-1.14.84-1.57-.13-.09-.21-.26-.21-.43ZM62.32,71.72c.04.08.05.17.05.27,0,.44-.64.69-.64,1.25,0,.46.5.67.91.67.37,0,1.15-.2,1.15-.7,0-.63-.94-1.25-1.47-1.49Z"/>
        </g>
      </g>
      <g>
        <path class="cls-2" d="M181.42,35.35v-6.47h-8.25v6.47h-1.76v-14.11h1.76v6.07h8.25v-6.07h1.76v14.11h-1.76Z"/>
        <path class="cls-2" d="M192.79,35.35v-1.16c-.85.93-2.01,1.42-3.38,1.42-1.73,0-3.57-1.16-3.57-3.38s1.84-3.36,3.57-3.36c1.4,0,2.56.44,3.38,1.4v-1.84c0-1.37-1.1-2.16-2.58-2.16-1.23,0-2.22.44-3.13,1.42l-.74-1.1c1.1-1.14,2.41-1.69,4.08-1.69,2.16,0,3.95.97,3.95,3.45v7.02h-1.59ZM192.79,31.27c-.61-.85-1.69-1.27-2.81-1.27-1.48,0-2.52.93-2.52,2.24s1.04,2.22,2.52,2.22c1.12,0,2.2-.42,2.81-1.27v-1.92Z"/>
        <path class="cls-2" d="M204.44,35.35v-6.68c0-1.8-.91-2.37-2.28-2.37-1.25,0-2.43.76-3.02,1.59v7.47h-1.59v-10.22h1.59v1.48c.72-.85,2.12-1.73,3.64-1.73,2.14,0,3.26,1.08,3.26,3.3v7.17h-1.59Z"/>
        <path class="cls-2" d="M216.6,35.35v-1.52c-.76,1.04-2.01,1.78-3.45,1.78-2.66,0-4.55-2.03-4.55-5.35s1.86-5.37,4.55-5.37c1.37,0,2.62.68,3.45,1.8v-5.44h1.59v14.11h-1.59ZM216.6,27.95c-.57-.89-1.8-1.65-3.07-1.65-2.05,0-3.28,1.69-3.28,3.96s1.23,3.93,3.28,3.93c1.27,0,2.5-.72,3.07-1.61v-4.63Z"/>
        <path class="cls-2" d="M222.94,39.24h-1.59v-14.11h1.59v1.52c.74-1.04,2.01-1.78,3.45-1.78,2.69,0,4.55,2.03,4.55,5.35s-1.86,5.37-4.55,5.37c-1.4,0-2.62-.66-3.45-1.8v5.44ZM225.98,26.3c-1.25,0-2.5.74-3.05,1.63v4.61c.55.89,1.8,1.65,3.05,1.65,2.05,0,3.28-1.69,3.28-3.96s-1.23-3.93-3.28-3.93Z"/>
        <path class="cls-2" d="M233.49,35.35v-10.22h1.59v1.65c.82-1.08,2.01-1.86,3.41-1.86v1.63c-.19-.04-.38-.06-.63-.06-.97,0-2.31.8-2.77,1.63v7.23h-1.59Z"/>
        <path class="cls-2" d="M239.87,30.23c0-2.96,1.95-5.35,5.05-5.35s5.05,2.39,5.05,5.35-1.95,5.37-5.05,5.37-5.05-2.41-5.05-5.37ZM248.31,30.23c0-2.07-1.21-3.93-3.38-3.93s-3.41,1.86-3.41,3.93,1.23,3.96,3.41,3.96,3.38-1.86,3.38-3.96Z"/>
        <path class="cls-2" d="M253.34,36.79c.85,1.02,1.86,1.4,3.32,1.4,1.69,0,3.28-.82,3.28-3.07v-1.46c-.74,1.04-1.99,1.82-3.43,1.82-2.66,0-4.55-1.99-4.55-5.29s1.86-5.31,4.55-5.31c1.37,0,2.6.68,3.43,1.8v-1.54h1.59v9.92c0,3.38-2.37,4.44-4.86,4.44-1.73,0-2.92-.34-4.12-1.52l.8-1.18ZM259.94,27.95c-.55-.89-1.78-1.65-3.05-1.65-2.05,0-3.28,1.63-3.28,3.89s1.23,3.89,3.28,3.89c1.27,0,2.5-.78,3.05-1.67v-4.46Z"/>
        <path class="cls-2" d="M264.69,35.35v-10.22h1.59v1.65c.82-1.08,2.01-1.86,3.41-1.86v1.63c-.19-.04-.38-.06-.63-.06-.97,0-2.31.8-2.77,1.63v7.23h-1.59Z"/>
        <path class="cls-2" d="M278.06,35.35v-1.16c-.85.93-2.01,1.42-3.38,1.42-1.73,0-3.57-1.16-3.57-3.38s1.84-3.36,3.57-3.36c1.4,0,2.56.44,3.38,1.4v-1.84c0-1.37-1.1-2.16-2.58-2.16-1.23,0-2.22.44-3.13,1.42l-.74-1.1c1.1-1.14,2.41-1.69,4.08-1.69,2.16,0,3.95.97,3.95,3.45v7.02h-1.59ZM278.06,31.27c-.61-.85-1.69-1.27-2.81-1.27-1.48,0-2.52.93-2.52,2.24s1.04,2.22,2.52,2.22c1.12,0,2.2-.42,2.81-1.27v-1.92Z"/>
        <path class="cls-2" d="M295.14,35.35v-6.94c0-1.29-.57-2.12-1.88-2.12-1.06,0-2.18.76-2.71,1.57v7.49h-1.59v-6.94c0-1.29-.55-2.12-1.88-2.12-1.04,0-2.14.76-2.69,1.59v7.47h-1.59v-10.22h1.59v1.48c.42-.66,1.8-1.73,3.3-1.73s2.45.85,2.75,1.9c.57-.93,1.95-1.9,3.43-1.9,1.86,0,2.86,1.04,2.86,3.09v7.38h-1.59Z"/>
        <path class="cls-2" d="M312.23,35.35v-6.94c0-1.29-.57-2.12-1.88-2.12-1.06,0-2.18.76-2.71,1.57v7.49h-1.59v-6.94c0-1.29-.55-2.12-1.88-2.12-1.04,0-2.14.76-2.69,1.59v7.47h-1.59v-10.22h1.59v1.48c.42-.66,1.8-1.73,3.3-1.73s2.45.85,2.75,1.9c.57-.93,1.95-1.9,3.43-1.9,1.86,0,2.86,1.04,2.86,3.09v7.38h-1.59Z"/>
        <path class="cls-2" d="M316.7,22.35c0-.59.49-1.06,1.06-1.06s1.08.47,1.08,1.06-.49,1.08-1.08,1.08-1.06-.49-1.06-1.08ZM316.98,35.35v-10.22h1.59v10.22h-1.59Z"/>
        <path class="cls-2" d="M326.18,24.88c3.09,0,4.91,2.41,4.91,5.48v.4h-8.27c.13,1.92,1.48,3.53,3.68,3.53,1.16,0,2.35-.47,3.15-1.29l.76,1.04c-1.02,1.02-2.39,1.57-4.06,1.57-3.02,0-5.2-2.18-5.2-5.37,0-2.96,2.11-5.35,5.03-5.35ZM322.81,29.6h6.7c-.02-1.52-1.04-3.41-3.36-3.41-2.18,0-3.26,1.84-3.34,3.41Z"/>
        <path class="cls-2" d="M333.64,35.35v-10.22h1.59v1.65c.82-1.08,2.01-1.86,3.4-1.86v1.63c-.19-.04-.38-.06-.63-.06-.97,0-2.31.8-2.77,1.63v7.23h-1.59Z"/>
        <path class="cls-2" d="M340.93,33.22v-6.68h-1.69v-1.4h1.69v-2.79h1.59v2.79h2.07v1.4h-2.07v6.35c0,.76.34,1.31,1.04,1.31.44,0,.87-.19,1.08-.42l.47,1.18c-.4.38-.97.66-1.9.66-1.5,0-2.26-.87-2.26-2.39Z"/>
        <path class="cls-2" d="M177.84,46.39c4.17,0,7,3.13,7,7.3s-2.83,7.3-7,7.3-7-3.13-7-7.3,2.81-7.3,7-7.3ZM177.84,47.95c-3.17,0-5.18,2.43-5.18,5.73s2.01,5.73,5.18,5.73,5.18-2.45,5.18-5.73-2.03-5.73-5.18-5.73Z"/>
        <path class="cls-2" d="M194.44,60.72v-6.73c0-1.8-.93-2.33-2.31-2.33-1.23,0-2.41.76-3.02,1.59v7.47h-1.59v-14.11h1.59v5.37c.72-.85,2.12-1.73,3.66-1.73,2.14,0,3.26,1.04,3.26,3.26v7.21h-1.59Z"/>
        <path class="cls-2" d="M206.09,60.72v-6.68c0-1.8-.91-2.37-2.28-2.37-1.25,0-2.43.76-3.02,1.59v7.47h-1.59v-10.22h1.59v1.48c.72-.85,2.12-1.73,3.64-1.73,2.14,0,3.26,1.08,3.26,3.3v7.17h-1.59Z"/>
        <path class="cls-2" d="M215.28,50.26c3.09,0,4.91,2.41,4.91,5.48v.4h-8.27c.13,1.92,1.48,3.53,3.68,3.53,1.16,0,2.35-.47,3.15-1.29l.76,1.04c-1.02,1.02-2.39,1.56-4.06,1.56-3.02,0-5.2-2.18-5.2-5.37,0-2.96,2.12-5.35,5.03-5.35ZM211.92,54.97h6.7c-.02-1.52-1.04-3.41-3.36-3.41-2.18,0-3.26,1.84-3.34,3.41Z"/>
        <path class="cls-2" d="M228.26,60.72v-14.11h4.82c4.38,0,7.23,3.07,7.23,7.06s-2.86,7.04-7.23,7.04h-4.82ZM230.02,59.16h3.07c3.43,0,5.41-2.45,5.41-5.48s-1.92-5.5-5.41-5.5h-3.07v10.98Z"/>
        <path class="cls-2" d="M249.39,60.72v-1.16c-.85.93-2.01,1.42-3.38,1.42-1.73,0-3.57-1.16-3.57-3.38s1.84-3.36,3.57-3.36c1.4,0,2.56.44,3.38,1.4v-1.84c0-1.37-1.1-2.16-2.58-2.16-1.23,0-2.22.44-3.13,1.42l-.74-1.1c1.1-1.14,2.41-1.69,4.08-1.69,2.16,0,3.95.97,3.95,3.45v7.02h-1.59ZM249.39,56.64c-.61-.85-1.69-1.27-2.81-1.27-1.48,0-2.52.93-2.52,2.24s1.04,2.22,2.52,2.22c1.12,0,2.2-.42,2.81-1.27v-1.92Z"/>
        <path class="cls-2" d="M254.46,58.59v-6.68h-1.69v-1.4h1.69v-2.79h1.59v2.79h2.07v1.4h-2.07v6.35c0,.76.34,1.31,1.04,1.31.44,0,.87-.19,1.08-.42l.47,1.18c-.4.38-.97.66-1.9.66-1.5,0-2.26-.87-2.26-2.39Z"/>
        <path class="cls-2" d="M266.75,60.72v-1.16c-.85.93-2.01,1.42-3.38,1.42-1.73,0-3.57-1.16-3.57-3.38s1.84-3.36,3.57-3.36c1.4,0,2.56.44,3.38,1.4v-1.84c0-1.37-1.1-2.16-2.58-2.16-1.23,0-2.22.44-3.13,1.42l-.74-1.1c1.1-1.14,2.41-1.69,4.08-1.69,2.16,0,3.95.97,3.95,3.45v7.02h-1.59ZM266.75,56.64c-.61-.85-1.69-1.27-2.81-1.27-1.48,0-2.52.93-2.52,2.24s1.04,2.22,2.52,2.22c1.12,0,2.2-.42,2.81-1.27v-1.92Z"/>
        <path class="cls-2" d="M270.55,56.3v-1.4h5.08v1.4h-5.08Z"/>
        <path class="cls-2" d="M281.4,60.72v-12.54h-4.46v-1.57h10.7v1.57h-4.48v12.54h-1.76Z"/>
        <path class="cls-2" d="M288.1,60.72v-10.22h1.59v1.65c.82-1.08,2.01-1.86,3.4-1.86v1.63c-.19-.04-.38-.06-.63-.06-.97,0-2.31.8-2.77,1.63v7.23h-1.59Z"/>
        <path class="cls-2" d="M301.46,60.72v-1.16c-.85.93-2.01,1.42-3.38,1.42-1.73,0-3.57-1.16-3.57-3.38s1.84-3.36,3.57-3.36c1.4,0,2.56.44,3.38,1.4v-1.84c0-1.37-1.1-2.16-2.58-2.16-1.23,0-2.22.44-3.13,1.42l-.74-1.1c1.1-1.14,2.41-1.69,4.08-1.69,2.16,0,3.96.97,3.96,3.45v7.02h-1.59ZM301.46,56.64c-.61-.85-1.69-1.27-2.81-1.27-1.48,0-2.52.93-2.52,2.24s1.04,2.22,2.52,2.22c1.12,0,2.2-.42,2.81-1.27v-1.92Z"/>
        <path class="cls-2" d="M310.72,50.26c1.86,0,2.96.76,3.74,1.78l-1.06.97c-.68-.93-1.54-1.33-2.6-1.33-2.18,0-3.53,1.67-3.53,3.93s1.35,3.96,3.53,3.96c1.06,0,1.92-.42,2.6-1.33l1.06.97c-.78,1.02-1.88,1.78-3.74,1.78-3.05,0-5.1-2.33-5.1-5.37s2.05-5.35,5.1-5.35Z"/>
        <path class="cls-2" d="M323.64,60.72l-3.68-4.59-1.69,1.67v2.92h-1.59v-14.11h1.59v9.33l5.37-5.44h2.01l-4.53,4.63,4.55,5.58h-2.03Z"/>
        <path class="cls-2" d="M327.27,47.72c0-.59.49-1.06,1.06-1.06s1.08.47,1.08,1.06-.49,1.08-1.08,1.08-1.06-.49-1.06-1.08ZM327.55,60.72v-10.22h1.59v10.22h-1.59Z"/>
        <path class="cls-2" d="M339.2,60.72v-6.68c0-1.8-.91-2.37-2.28-2.37-1.25,0-2.43.76-3.02,1.59v7.47h-1.59v-10.22h1.59v1.48c.72-.85,2.11-1.73,3.64-1.73,2.14,0,3.26,1.08,3.26,3.3v7.17h-1.59Z"/>
        <path class="cls-2" d="M344.74,62.16c.85,1.02,1.86,1.4,3.32,1.4,1.69,0,3.28-.82,3.28-3.07v-1.46c-.74,1.04-1.99,1.82-3.43,1.82-2.67,0-4.55-1.99-4.55-5.29s1.86-5.31,4.55-5.31c1.37,0,2.6.68,3.43,1.8v-1.54h1.59v9.92c0,3.38-2.37,4.44-4.86,4.44-1.73,0-2.92-.34-4.12-1.52l.8-1.18ZM351.34,53.32c-.55-.89-1.78-1.65-3.04-1.65-2.05,0-3.28,1.63-3.28,3.89s1.23,3.89,3.28,3.89c1.27,0,2.49-.78,3.04-1.67v-4.46Z"/>
      </g>
    </g>
  </g>
</svg>