<?xml version="1.0" encoding="UTF-8"?>
<svg id="Ebene_2" data-name="Ebene 2" xmlns="http://www.w3.org/2000/svg" xmlns:xlink="http://www.w3.org/1999/xlink" viewBox="0 0 700.38 198.47">
  <defs>
    <style>
      .cls-1 {
        fill: #305875;
      }

      .cls-2 {
        fill: none;
      }

      .cls-3 {
        clip-path: url(#clippath-1);
      }

      .cls-4 {
        fill: #333;
      }

      .cls-5 {
        clip-path: url(#clippath);
      }
    </style>
    <clipPath id="clippath">
      <rect class="cls-2" y="15.52" width="142.58" height="167.11"/>
    </clipPath>
    <clipPath id="clippath-1">
      <rect class="cls-2" y="15.52" width="142.58" height="167.11"/>
    </clipPath>
  </defs>
  <g id="Ebene_1-2" data-name="Ebene 1">
    <g>
      <g>
        <g class="cls-5">
          <g class="cls-3">
            <path class="cls-4" d="M30.66,116.51c-1.11.76-2.08,1.61-3.21,2.16-.89.43-1.96.65-2.95.68-2.36.06-3.83-1.69-3.49-4.03.11-.76.35-1.52.61-2.25.56-1.59-.21-2.64-1.89-2.45-.81.09-1.6.33-2.41.39-1.61.13-1.94-.2-1.97-1.81,0-.14-.02-.28-.04-.46-.33.1-.63.21-.94.28-.67.15-1.19.06-1.63-.61-.84-1.28-1.69-1.42-2.97-.58-.83.54-1.6,1.17-2.43,1.71-.8.52-1.67.68-2.48.07-.79-.59-.64-1.44-.44-2.25.27-1.06.65-2.1.87-3.17.3-1.46-.14-2-1.62-2.23-.7-.11-1.43-.12-2.08-.35-1.82-.65-2.12-2.26-.66-3.5.78-.66,1.65-1.23,2.44-1.88.6-.48.89-1.01.46-1.84-.47-.9-.13-1.4.87-1.3,1.09.11,2.16.36,3.23.59.88.19,1.49.19,1.8-.95.49-1.76,1.99-2.4,3.67-2.58,1.69-.18,3.39-.24,5.08-.44,2.05-.24,3.82-1.01,4.97-2.99-1.39-.07-2.73.01-4.01-.23-1.72-.33-3.49-.7-5.07-1.43-2.83-1.31-3.14-3.47-1.05-5.79.45-.49,1.22-.91,1.3-1.45.07-.44-.68-.99-1.02-1.52-.97-1.51-.55-2.45,1.25-2.76,1.47-.25,2.96-.37,4.41-.67,2.17-.44,3.94-1.51,5.11-3.48.52-.88.7-1.76.46-2.74-.07-.28-.07-.57-.15-.84-.43-1.52,0-2.72,1.33-3.59.88-.58,1.21-1.32.76-2.36-.16-.38-.17-.83-.19-1.25-.09-1.79.64-2.67,2.46-2.72,1.31-.04,2.62.14,3.93.2.67.03,1.35.06,2.02-.01,1.95-.23,2.74-1.93,1.53-3.46-.94-1.19-2.17-2.15-3.13-3.32-.73-.88-1.46-1.88-1.79-2.94-.67-2.17.11-4.09,1.96-5.3,1.83-1.19,3.84-2.1,5.81-3.05,1.75-.84,3.58-1.52,5.33-2.37,1.52-.73,2.67-1.85,3.16-3.55.06-.2.16-.39.25-.59,1.46-3.41,3.02-4.44,6.7-4.41.57,0,1.13,0,1.81,0-.23-.52-.46-1.01-.65-1.52-.73-1.95-.05-3.14,1.98-3.4,1.4-.18,2.83-.2,4.23-.38,2.33-.3,3.98-1.57,4.9-3.74.24-.55.48-1.1.75-1.64.32-.64.83-.9,1.56-.87.81.03,1.13.36,1.1,1.18-.08,1.93.55,2.61,2.48,2.96,1.56.28,3.02-.03,4.47-.55.66-.24,1.34-.48,2.03-.61.77-.15,1.43.16,1.69.94.27.8-.36,1.16-.94,1.43-.74.34-1.52.58-2.27.9-.89.38-1.83.76-1.84,1.95,0,1.34.82,2.65,2.12,2.85,1.37.2,2.84.24,4.18-.07,1.63-.38,3.17-1.18,4.75-1.8.13-.05.25-.14.37-.21,2.82-1.46,4.2-.61,4.07,2.55-.06,1.45-.31,2.91-.2,4.35.08,1.04.37,2.25,1.01,3.03,1.75,2.13,5.02,1.65,6.11-.91.6-1.42,1.99-1.74,3.57-1.49,1.59.25,2.85,1.42,2.89,2.83.02,1.01-.2,2.03-.33,3.05-.14,1.09-.44,2.17-.4,3.25.08,2.32,1.55,3.81,3.41,4.95,2.73,1.68,5.8,2.42,8.87,3.16,1.99.49,4,.92,5.97,1.5,2.58.75,3.48,2.06,3.57,4.74.01.36.32.77.59,1.06.39.41.9.69,1.3,1.09.18.18.33.51.3.75-.09.7-.14,1.46-.47,2.05-.38.66-.95,1.33-1.61,1.68-.75.4-1.69.46-2.55.67.17,1.43,1.08,2.51,2.46,2.86.41.11.84.15,1.25.26,1.01.27,1.55,1.09,1.45,2.17-.11,1.12-.74,1.86-1.83,1.82-1.05-.04-2.09-.29-3.12-.52-1.14-.25-2.25-.64-3.4-.83-.51-.08-1.17.03-1.6.31-.9.59-.68,2.02.42,2.34,1.41.42,2.89.63,4.36.85,2.24.33,4.5.53,6.74.89.78.13,1.58.46,2.26.88,1.69,1.05,1.56,3.1-.23,3.95-.8.38-1.66.61-2.47.97-1.43.63-1.69,1.5-.97,2.91.7,1.38,1.7,2.24,3.32,2.21.6-.01,1.2.06,1.8.1,2.05.12,2.17.2,2.81,2.17.45,1.4,1.36,2.36,2.65,3.03,1.58.82,1.79,1.42,1.11,3.07-.25.62-.6,1.2-.89,1.81-.5,1.08-.52,2.16.25,3.11,1.09,1.33,1.25,2.8.85,4.41-.13.52-.25,1.03-.39,1.55-.48,1.74-.05,3.2,1.25,4.45,1.19,1.15,1.17,1.87-.05,3-1.54,1.41-1.88,3.27-1.98,5.22-.04.67,0,1.36-.12,2.02-.26,1.56-1.06,2.34-2.65,2.39-1.34.05-2.7-.02-4.02-.21-1.35-.2-2.44.17-3.44,1.01-.57.48-1.12.98-1.69,1.46-1,.83-2.05,1.33-3.24.35-.09.1-.16.15-.16.19.05,2.51-1.3,3.56-3.82,2.94-.41-.1-.84-.24-1.18-.48-1.19-.85-2.45-.79-3.76-.45-.41.11-.81.25-1.23.34-1.41.32-1.68.17-2.21-1.16-.41-1.04-1.17-1.69-2.28-1.83-.88-.11-1.76-.14-2.65-.21-1.33-.11-1.99-.62-2.13-1.92-.08-.79-.45-.97-1.12-1.06-4.55-.66-8.3.9-11.4,4.16-3.51,3.7-5.49,8.24-6.84,13.06-3.27,11.65-3.71,23.42-.99,35.24.39,1.71,1.2,3.32,1.82,4.97.38,1.03.88,2.03,1.12,3.08.36,1.62-.21,2.42-1.84,2.73-.86.17-1.76.26-2.64.27-4.89.01-9.79,0-14.68-.05-.87,0-1.77-.15-2.62-.37-1.25-.33-1.67-1.04-1.23-2.24.57-1.56,1.19-3.12,2-4.57,3.06-5.47,4.61-11.41,5.68-17.51,1.5-8.48,2.1-17.03,1.71-25.64-.19-4.15-.61-8.29-2.11-12.21-.46-1.21-1.12-2.38-1.9-3.41-1.28-1.67-3.1-2.07-5.04-1.25-.71.3-1.42.68-2.03,1.15-3.3,2.55-6.93,3.23-10.93,2.09-.81-.23-1.67-.34-2.51-.41-1.69-.13-3.12.41-4.27,1.71-.77.88-1.56,1.76-2.45,2.51-1.19,1-2.14.96-3.36,0-1.17-.93-2.48-1.49-3.97-1.62-3.38-.29-3.85-.68-4.73-3.93-.04-.14-.08-.27-.11-.37M97.69,107.62c-1.63.36-3.19.67-4.73,1.05-1.19.3-2.09.95-2.55,2.18-.38,1.03-1.04,1.34-2.11,1.08-1.26-.3-2.31-1.01-2.92-2.13-.43-.77-.81-.66-1.38-.31-1.66,1-2.52,2.59-3.03,4.35-1.47,5.13-1.22,10.22.51,15.26.14.41.36.79.63,1.36,4.43-7.6,9.81-13.93,18.22-17.14-2.09-1.49-2.78-3.4-2.65-5.7"/>
          </g>
        </g>
        <g>
          <path class="cls-4" d="M274.56,121l-3.23-8.85h-22.93l-3.23,8.85h-12l19.85-51.31h13.69l19.77,51.31h-11.92ZM259.87,79.15l-8.54,23.54h17l-8.46-23.54Z"/>
          <path class="cls-4" d="M291.03,121v-51.31h9.77v51.31h-9.77Z"/>
          <path class="cls-4" d="M335.57,121v-4.69c-2.54,2.85-7,5.62-13.08,5.62-8.15,0-12-4.46-12-11.69v-26.39h9.77v22.54c0,5.15,2.69,6.85,6.85,6.85,3.77,0,6.77-2.08,8.46-4.23v-25.16h9.77v37.16h-9.77Z"/>
          <path class="cls-4" d="M401.11,121v-23.46c0-3.46-1.54-5.92-5.54-5.92-3.46,0-6.31,2.31-7.69,4.31v25.08h-9.85v-23.46c0-3.46-1.54-5.92-5.54-5.92-3.38,0-6.23,2.31-7.69,4.39v25h-9.77v-37.16h9.77v4.85c1.54-2.23,6.46-5.77,12.15-5.77s8.92,2.54,10.31,6.77c2.15-3.39,7.08-6.77,12.77-6.77,6.85,0,10.92,3.62,10.92,11.23v26.85h-9.85Z"/>
          <path class="cls-4" d="M445.66,121v-22.46c0-5.15-2.69-6.92-6.85-6.92-3.85,0-6.85,2.15-8.46,4.39v25h-9.77v-37.16h9.77v4.85c2.39-2.85,6.92-5.77,13-5.77,8.15,0,12.08,4.62,12.08,11.85v26.23h-9.77Z"/>
          <path class="cls-4" d="M464.12,72.53c0-3.23,2.69-5.85,5.85-5.85s5.85,2.62,5.85,5.85-2.62,5.85-5.85,5.85-5.85-2.62-5.85-5.85ZM465.12,121v-37.16h9.77v37.16h-9.77Z"/>
          <path class="cls-4" d="M504.51,121v-51.31h24c11.16,0,17.23,7.54,17.23,16.54s-6.15,16.39-17.23,16.39h-13.08v18.39h-10.92ZM527.05,79.07h-11.62v14.15h11.62c4.31,0,7.54-2.77,7.54-7.08s-3.23-7.08-7.54-7.08Z"/>
          <path class="cls-4" d="M548.59,102.38c0-10.54,7.39-19.46,19.62-19.46s19.69,8.92,19.69,19.46-7.39,19.54-19.69,19.54-19.62-8.92-19.62-19.54ZM577.75,102.38c0-5.77-3.46-10.77-9.54-10.77s-9.46,5-9.46,10.77,3.38,10.85,9.46,10.85,9.54-5,9.54-10.85Z"/>
          <path class="cls-4" d="M595.14,121v-37.16h9.77v5.08c2.62-3.31,7.23-5.92,11.85-5.92v9.54c-.69-.15-1.62-.23-2.69-.23-3.23,0-7.54,1.77-9.15,4.15v24.54h-9.77Z"/>
          <path class="cls-4" d="M624.75,111.77v-19.39h-6.16v-8.54h6.16v-10.15h9.85v10.15h7.54v8.54h-7.54v16.77c0,2.31,1.23,4.08,3.38,4.08,1.46,0,2.85-.54,3.38-1.08l2.08,7.39c-1.46,1.31-4.08,2.38-8.16,2.38-6.85,0-10.54-3.54-10.54-10.15Z"/>
          <path class="cls-4" d="M671.14,121v-3.85c-2.54,3-6.92,4.77-11.77,4.77-5.92,0-12.92-4-12.92-12.31s7-11.85,12.92-11.85c4.92,0,9.31,1.54,11.77,4.54v-5.15c0-3.77-3.23-6.23-8.15-6.23-4,0-7.69,1.46-10.85,4.39l-3.69-6.54c4.54-4,10.39-5.85,16.23-5.85,8.46,0,16.23,3.38,16.23,14.08v24h-9.77ZM671.14,107.46c-1.62-2.15-4.69-3.23-7.85-3.23-3.85,0-7,2.08-7,5.62s3.15,5.46,7,5.46c3.15,0,6.23-1.08,7.85-3.23v-4.62Z"/>
          <path class="cls-4" d="M690.61,121v-51.31h9.77v51.31h-9.77Z"/>
          <path class="cls-4" d="M250.16,169.55v-38.72h-13.68v-1.82h29.36v1.82h-13.74v38.72h-1.95Z"/>
          <path class="cls-4" d="M267.3,169.55v-29.36h1.82v5.35c2.61-3.47,5.84-5.9,10.09-5.9v2.19c-.55-.06-.91-.06-1.46-.06-3.1,0-7.29,3.04-8.63,5.78v22.01h-1.82Z"/>
          <path class="cls-4" d="M298,139.46c9,0,13.62,7.23,13.62,15.38v.61h-25.35c.18,7.17,4.86,13.19,12.34,13.19,4.13,0,7.48-1.52,10.21-4.44l1.09,1.15c-2.98,3.1-6.38,4.92-11.31,4.92-8.51,0-14.41-6.5-14.41-15.44s5.9-15.38,13.8-15.38ZM286.27,153.81h23.4c0-5.65-3.71-12.71-11.73-12.71-7.54,0-11.49,6.93-11.67,12.71Z"/>
          <path class="cls-4" d="M322.32,180.73h-1.82v-40.55h1.82v4.92c2.01-3.04,5.96-5.65,10.58-5.65,7.9,0,13.13,6.08,13.13,15.38s-5.23,15.44-13.13,15.44c-4.38,0-8.21-2.31-10.58-5.77v16.23ZM332.9,141.1c-4.56,0-8.75,2.74-10.58,5.84v15.74c1.82,3.1,6.02,5.96,10.58,5.96,7.17,0,11.12-6.08,11.12-13.8s-3.95-13.74-11.12-13.74Z"/>
          <path class="cls-4" d="M355.27,164.38v-22.55h-4.86v-1.64h4.86v-8.02h1.82v8.02h5.96v1.64h-5.96v22.55c0,2.49.97,4.25,3.16,4.25,1.46,0,2.74-.73,3.47-1.58l1.09,1.4c-1.15,1.09-2.37,1.82-4.56,1.82-3.4,0-4.98-2.25-4.98-5.9Z"/>
          <path class="cls-4" d="M367.18,154.84c0-8.63,5.41-15.38,13.68-15.38s13.68,6.75,13.68,15.38-5.35,15.44-13.68,15.44-13.68-6.81-13.68-15.44ZM392.53,154.84c0-7.11-4.13-13.74-11.67-13.74s-11.67,6.63-11.67,13.74,4.19,13.8,11.67,13.8,11.67-6.63,11.67-13.8Z"/>
          <path class="cls-4" d="M428.46,169.55l-8.88-26.63-8.88,26.63h-1.46l-9.73-29.36h2.01l8.51,26.5,8.81-26.5h1.46l8.81,26.5,8.51-26.5h2.01l-9.73,29.36h-1.46Z"/>
          <path class="cls-4" d="M442.81,155.75v-1.82h14.59v1.82h-14.59Z"/>
          <path class="cls-4" d="M489.43,169.55l-18.05-19.94-4.86,5.29v14.65h-1.95v-40.55h1.95v23.4l21.09-23.4h2.61l-17.63,19.39,19.45,21.15h-2.61Z"/>
          <path class="cls-4" d="M495.15,154.84c0-8.63,5.41-15.38,13.68-15.38s13.68,6.75,13.68,15.38-5.35,15.44-13.68,15.44-13.68-6.81-13.68-15.44ZM520.5,154.84c0-7.11-4.13-13.74-11.67-13.74s-11.67,6.63-11.67,13.74,4.19,13.8,11.67,13.8,11.67-6.63,11.67-13.8Z"/>
          <path class="cls-4" d="M531.38,169.55v-40.55h1.82v40.55h-1.82Z"/>
          <path class="cls-4" d="M543.66,169.55v-40.55h1.82v40.55h-1.82Z"/>
          <path class="cls-4" d="M568.16,139.46c9,0,13.62,7.23,13.62,15.38v.61h-25.35c.18,7.17,4.86,13.19,12.34,13.19,4.13,0,7.48-1.52,10.21-4.44l1.09,1.15c-2.98,3.1-6.38,4.92-11.31,4.92-8.51,0-14.41-6.5-14.41-15.44s5.9-15.38,13.8-15.38ZM556.43,153.81h23.4c0-5.65-3.71-12.71-11.73-12.71-7.54,0-11.49,6.93-11.67,12.71Z"/>
          <path class="cls-4" d="M592.29,175.51c2.55,3.16,5.29,4.32,9.91,4.32,5.84,0,10.58-2.98,10.58-10.09v-5.11c-2.01,3.04-5.96,5.77-10.58,5.77-7.9,0-13.13-6.14-13.13-15.44s5.23-15.5,13.13-15.5c4.38,0,8.21,2.31,10.58,5.78v-5.05h1.82v29.54c0,8.39-5.29,11.73-12.4,11.73-4.92,0-7.84-.85-11.25-4.44l1.34-1.52ZM612.78,147.06c-1.82-3.1-6.02-5.96-10.58-5.96-7.17,0-11.12,6.14-11.12,13.86s3.95,13.8,11.12,13.8c4.56,0,8.75-2.86,10.58-5.96v-15.74Z"/>
        </g>
      </g>
      <rect class="cls-1" x="184.5" width="9.01" height="198.47"/>
    </g>
  </g>
</svg>